# xmcd
#
# Track frame offsets:
#	150
#	21406
#	43003
#	60438
#	78721
#	95752
#	107715
#	132924
#	156786
#	179495
#	201452
#	220484
#	250422
#	265804
#	281662
#	295850
#
# Disc length: 4298 seconds
#
# Revision: 1
# Processed by: cddbd v1.5.2PL0 Copyright (c) Steve Scherf et al.
# Submitted via: audiograbber 1.83.01
#
DISCID=fc10c810
DTITLE=Григорий Лепс - Второй
DYEAR=2007
DGENRE=Ballad
TTITLE0=Райские яблоки
TTITLE1=Певец у микрофона
TTITLE2=Человек за бортом
TTITLE3=Горизонт
TTITLE4=Песня самолета-истребителя
TTITLE5=Братские могилы
TTITLE6=Разбойничья
TTITLE7=Был развесёлый розовый восход
TTITLE8=Баллада о борьбе
TTITLE9=Песня о друге
TTITLE10=Здесь лапы у елей дрожат на весу
TTITLE11=Купола
TTITLE12=Дом хрустальный
TTITLE13=Корабли
TTITLE14=Парус
TTITLE15=Моя цыганская
EXTD=Песни Владимира Высоцкого
EXTT0=
EXTT1=
EXTT2=
EXTT3=
EXTT4=
EXTT5=
EXTT6=
EXTT7=
EXTT8=
EXTT9=
EXTT10=
EXTT11=
EXTT12=
EXTT13=
EXTT14=
EXTT15=
PLAYORDER=
